name D:\school\WTK\thesis\model\3dpredictsim\Results\Batchsim_tmt_linear_v2\Pog_s1_tmt_aCst_d05_k800_ig24.mot
datacolumns 128
datarows 4
range 1.06450285 1.09643793
endheader
time	pelvis_tilt	pelvis_list	pelvis_rotation	pelvis_tx	pelvis_ty	pelvis_tz	hip_flexion_l	hip_adduction_l	hip_rotation_l	hip_flexion_r	hip_adduction_r	hip_rotation_r	knee_angle_l	knee_angle_r	ankle_angle_l	ankle_angle_r	subtalar_angle_l	subtalar_angle_r	tmt_angle_l	tmt_angle_r	mtp_angle_l	mtp_angle_r	lumbar_extension	lumbar_bending	lumbar_rotation	arm_flex_l	arm_add_l	arm_rot_l	arm_flex_r	arm_add_r	arm_rot_r	elbow_flex_l	elbow_flex_r	pro_sup_l	pro_sup_r	glut_med1_l/activation	glut_med2_l/activation	glut_med3_l/activation	glut_min1_l/activation	glut_min2_l/activation	glut_min3_l/activation	semimem_l/activation	semiten_l/activation	bifemlh_l/activation	bifemsh_l/activation	sar_l/activation	add_long_l/activation	add_brev_l/activation	add_mag1_l/activation	add_mag2_l/activation	add_mag3_l/activation	tfl_l/activation	pect_l/activation	grac_l/activation	glut_max1_l/activation	glut_max2_l/activation	glut_max3_l/activation	iliacus_l/activation	psoas_l/activation	quad_fem_l/activation	gem_l/activation	peri_l/activation	rect_fem_l/activation	vas_med_l/activation	vas_int_l/activation	vas_lat_l/activation	med_gas_l/activation	lat_gas_l/activation	soleus_l/activation	tib_post_l/activation	flex_dig_l/activation	flex_hal_l/activation	tib_ant_l/activation	per_brev_l/activation	per_long_l/activation	per_tert_l/activation	ext_dig_l/activation	ext_hal_l/activation	ercspn_l/activation	intobl_l/activation	extobl_l/activation	glut_med1_r/activation	glut_med2_r/activation	glut_med3_r/activation	glut_min1_r/activation	glut_min2_r/activation	glut_min3_r/activation	semimem_r/activation	semiten_r/activation	bifemlh_r/activation	bifemsh_r/activation	sar_r/activation	add_long_r/activation	add_brev_r/activation	add_mag1_r/activation	add_mag2_r/activation	add_mag3_r/activation	tfl_r/activation	pect_r/activation	grac_r/activation	glut_max1_r/activation	glut_max2_r/activation	glut_max3_r/activation	iliacus_r/activation	psoas_r/activation	quad_fem_r/activation	gem_r/activation	peri_r/activation	rect_fem_r/activation	vas_med_r/activation	vas_int_r/activation	vas_lat_r/activation	med_gas_r/activation	lat_gas_r/activation	soleus_r/activation	tib_post_r/activation	flex_dig_r/activation	flex_hal_r/activation	tib_ant_r/activation	per_brev_r/activation	per_long_r/activation	per_tert_r/activation	ext_dig_r/activation	ext_hal_r/activation	ercspn_r/activation	intobl_r/activation	extobl_r/activation	
          1.06450285	         -2.91513107	          1.02881369	          4.64883575	          1.33062856	          0.87172911	         -0.00171620	        -17.33614880	          1.30967924	          6.21221553	         27.08506989	         -0.41128408	         -1.70597419	         -6.75170584	         -8.88260352	         -8.39517750	          5.87260964	          9.26089863	          4.27124930	          1.30617856	          0.04167592	         26.42077382	         -0.10046751	          0.57612091	         -3.07417653	         -1.64673410	          3.26879948	        -13.47775982	         11.34385718	         -9.16475929	        -13.44972448	         12.07929537	         26.48148066	         17.43044694	         86.51662706	         86.51662706	          0.28375608	          0.08958695	          0.08161301	          0.26263995	          0.15741360	          0.09072563	          0.05000031	          0.05000002	          0.05000002	          0.05000003	          0.09507428	          0.08994543	          0.05000018	          0.05000017	          0.05000040	          0.05000016	          0.21976563	          0.05759430	          0.05000021	          0.05000063	          0.05000041	          0.05000036	          0.29977089	          0.56683507	          0.05000013	          0.05000015	          0.06931523	          0.23189469	          0.09684390	          0.09598855	          0.07358406	          0.17548434	          0.24993838	          0.21340325	          0.19005005	          0.19474306	          0.24896012	          0.05000000	          0.09747984	          0.16089476	          0.05000002	          0.05000000	          0.05000001	          0.05000000	          0.05000000	          0.05000000	          0.12461629	          0.05000016	          0.08610427	          0.05000004	          0.05000006	          0.05000041	          0.05887082	          0.05887081	          0.05887083	          0.05000007	          0.05000039	          0.05887079	          0.05887406	          0.13628312	          0.14748030	          0.12917433	          0.05000027	          0.05002035	          0.05153284	          0.06931478	          0.09564088	          0.12614555	          0.05000005	          0.05000004	          0.15134265	          0.05000026	          0.05960070	          0.05212893	          0.12224183	          0.14303350	          0.09621608	          0.05887084	          0.05887084	          0.05887085	          0.05000002	          0.05000037	          0.05887060	          0.48816114	          0.28140750	          0.16652176	          0.24912090	          0.51787340	          0.29170061	          0.05000003	          0.13321465	          0.13362639	
          1.07514788	         -2.89658268	          1.07104977	          4.80036833	          1.34730569	          0.87045714	         -0.00156224	        -17.07612072	          1.18538357	          5.93991955	         26.52107539	         -0.25930695	         -1.47312352	         -8.99059454	         -8.89830651	         -9.07793174	          5.29786152	         10.29978468	          3.83659716	          1.18153439	          0.06184884	         27.12178456	         -0.08539443	          0.79005236	         -2.88225318	         -1.69929693	          3.01970436	        -13.50940324	         11.63020208	        -10.29709557	        -13.45158421	         11.86989625	         27.29581653	         17.46085996	         86.51662706	         86.51662706	          0.24099878	          0.07608769	          0.06931529	          0.22306451	          0.13369400	          0.07705480	          0.05000021	          0.05000002	          0.05000002	          0.05000002	          0.08074822	          0.15470505	          0.17523069	          0.09214810	          0.05000079	          0.05000013	          0.18665062	          0.10273708	          0.05000041	          0.05000034	          0.05000019	          0.05000020	          0.25460042	          0.48142249	          0.05677429	          0.05887097	          0.05887085	          0.19695203	          0.13321444	          0.13553997	          0.11863093	          0.14904178	          0.21227684	          0.18124694	          0.16141269	          0.16539857	          0.21144600	          0.05000000	          0.08279127	          0.13665074	          0.05000001	          0.05000000	          0.05000001	          0.05083411	          0.07294554	          0.05000023	          0.10583871	          0.05864913	          0.14192825	          0.05887081	          0.05603145	          0.05000019	          0.05000000	          0.05000001	          0.05000000	          0.05000000	          0.05000010	          0.05000009	          0.05000275	          0.21547542	          0.21018426	          0.14021642	          0.05000007	          0.05000017	          0.05000004	          0.05887085	          0.10540763	          0.15970406	          0.05000001	          0.05000003	          0.22191160	          0.10482462	          0.13342525	          0.07057555	          0.28511877	          0.30443878	          0.23464905	          0.05000000	          0.05000000	          0.05000000	          0.05000001	          0.05000011	          0.05000003	          0.57963606	          0.30826985	          0.18305046	          0.48487876	          0.56229112	          0.30362013	          0.05000000	          0.11314142	          0.11349112	
          1.08579291	         -2.87184676	          1.09978397	          4.93040666	          1.36420332	          0.86902183	         -0.00142300	        -16.72281902	          1.05613402	          5.65983672	         25.84031851	         -0.13308036	         -1.19905474	        -11.41132851	         -9.46329736	         -9.70425631	          4.66586244	         11.30626521	          3.38051589	          1.00226618	         -0.04056882	         27.35191979	         -0.13344142	          1.01810609	         -2.66321122	         -1.74135146	          2.71387394	        -13.54721698	         11.88273536	        -11.43004801	        -13.46439598	         11.72358368	         28.10458208	         17.47977901	         86.51662706	         86.51662706	          0.24266841	          0.06462255	          0.05887064	          0.18945243	          0.11354855	          0.06544393	          0.06284352	          0.05000004	          0.05000005	          0.05000000	          0.06858085	          0.16534952	          0.32467808	          0.08765320	          0.05887081	          0.10769271	          0.15852549	          0.08725656	          0.05000016	          0.05000213	          0.05000759	          0.05887028	          0.21623639	          0.41849204	          0.05056626	          0.05000018	          0.05000001	          0.16727464	          0.11314125	          0.11511637	          0.10075524	          0.12658367	          0.18029026	          0.15393605	          0.13709049	          0.14047579	          0.17958463	          0.05000005	          0.07031623	          0.14693743	          0.05000003	          0.15165834	          0.05000016	          0.05085295	          0.06195387	          0.06059866	          0.25689982	          0.18167910	          0.29773271	          0.05000005	          0.05000004	          0.21166677	          0.07831378	          0.05000003	          0.07580525	          0.05000001	          0.05000021	          0.06931556	          0.08721803	          0.18300689	          0.17851306	          0.14407575	          0.05000010	          0.06931552	          0.05000026	          0.05000003	          0.08952448	          0.13563936	          0.05337872	          0.05000017	          0.18847323	          0.08902932	          0.19894133	          0.05994099	          0.24215613	          0.25856493	          0.19929135	          0.05887085	          0.05887085	          0.05887085	          0.05779209	          0.05887086	          0.05887085	          0.49229458	          0.28742946	          0.15546788	          0.41181562	          0.57793123	          0.25786965	          0.05000000	          0.09609290	          0.09638990	
          1.09643793	         -2.84403152	          1.11449382	          5.03575580	          1.38110489	          0.86741260	         -0.00128914	        -16.27221627	          0.92650421	          5.37507610	         25.04469962	         -0.01014953	         -0.90613013	        -13.99820888	        -10.06725493	        -10.15511245	          4.18856357	         12.24163924	          2.89211737	          0.76456791	         -0.01052399	         26.85263234	         -0.14842777	          1.24014224	         -2.41894271	         -1.77281423	          2.38673788	        -13.59172903	         12.11431894	        -12.51676528	        -13.48962682	         11.67079484	         28.89550289	         17.45825556	         86.51662706	         86.51662706	          0.20610234	          0.05488501	          0.05000000	          0.16090520	          0.09643868	          0.05558263	          0.08609615	          0.05000006	          0.05000004	          0.05000005	          0.05887065	          0.18758410	          0.31152523	          0.07444541	          0.05000040	          0.09146528	          0.13463836	          0.07410934	          0.05000012	          0.05000007	          0.05000004	          0.05000004	          0.18365317	          0.37366000	          0.05000000	          0.05000003	          0.05000002	          0.14206914	          0.09609276	          0.09777026	          0.08557311	          0.10750962	          0.15312352	          0.13074045	          0.11643325	          0.11930845	          0.15252424	          0.08613087	          0.08887737	          0.12479641	          0.10221053	          0.21735801	          0.10254326	          0.08722143	          0.05261845	          0.05146746	          0.31712825	          0.31931886	          0.39898919	          0.20242486	          0.15806162	          0.25878472	          0.06651324	          0.09193662	          0.06931709	          0.07153582	          0.05000015	          0.05887088	          0.07407574	          0.15543083	          0.18959463	          0.17033287	          0.05000002	          0.05887089	          0.08161329	          0.22591709	          0.17906187	          0.17968634	          0.05000002	          0.05000002	          0.16007346	          0.07561413	          0.22303233	          0.05090889	          0.20566724	          0.21960352	          0.16926147	          0.05000000	          0.05000000	          0.05000000	          0.05000000	          0.05000001	          0.05000001	          0.63007794	          0.29374322	          0.14947660	          0.65596584	          0.64159053	          0.43109133	          0.05000001	          0.08161330	          0.08186555	
